<svg width="500" height="500" viewBox="0 0 500 500" xmlns="http://www.w3.org/2000/svg">
  <!-- Background -->
  <rect width="500" height="500" fill="#fbf8f1"/>

  <!-- Logo group: 220x180 design scaled to ~400x327, centered in 500x500 -->
  <g transform="translate(50, 86.4) scale(1.8182)">

    <!-- Outer rounded rect -->
    <rect x="15" y="15" width="190" height="150" rx="28" ry="28" fill="none" stroke="#111111" stroke-width="9"/>

    <!-- Corner brackets -->
    <path d="M38 38 H58 M38 38 V58" fill="none" stroke="#111111" stroke-width="6" stroke-linecap="round"/>
    <path d="M182 38 H162 M182 38 V58" fill="none" stroke="#111111" stroke-width="6" stroke-linecap="round"/>
    <path d="M38 142 H58 M38 142 V122" fill="none" stroke="#111111" stroke-width="6" stroke-linecap="round"/>
    <path d="M182 142 H162 M182 142 V122" fill="none" stroke="#111111" stroke-width="6" stroke-linecap="round"/>

    <!-- B — Satoshi Black glyph as path (UPM 1000, scale=0.085, y-flipped) -->
    <g transform="translate(81.7375, 118) scale(0.085, -0.085)" fill="#111111">
      <path d="M239 740V0H77V740ZM376 301H187V437H368Q412 437 435.0 458.0Q458 479 458 519Q458 558 435.0 578.0Q412 598 368 598H198V740H385Q497 740 560.5 685.0Q624 630 624 535Q624 470 592.0 425.0Q560 380 499 361V375Q564 361 598.5 317.0Q633 273 633 204Q633 139 604.5 93.0Q576 47 520.5 23.5Q465 0 385 0H198V142H376Q421 142 444.0 162.5Q467 183 467 224Q467 262 443.5 281.5Q420 301 376 301Z"/>
    </g>

  </g>
</svg>
